# xmcd CD database file
#
# Track frame offsets:
#	150
#	49583
#	102975
#	145057
#	190968
#	234533
#
# Disc length: 3820 seconds
#
# Revision: 0
# Processed by: cddbd v1.5.2PL0 Copyright (c) Steve Scherf et al.
# Submitted via: CDex 1.70beta3
#
DISCID=4c0eea06
DTITLE=G.F.Fitz-Gerald and Lol Coxhill - The Poppy Seed Affair: An Intimate Concert
DYEAR=1981
DGENRE=Jazz
TTITLE0=10:59
TTITLE1=11:52
TTITLE2=9:19
TTITLE3=9:54
TTITLE4=9:40
TTITLE5=11:35
EXTD=YEAR: 1981
EXTT0=
EXTT1=
EXTT2=
EXTT3=
EXTT4=
EXTT5=
PLAYORDER=
